<svg width="29" height="29" viewBox="0 0 29 29" fill="none" xmlns="http://www.w3.org/2000/svg">
<path d="M21.9285 20.1083L15.9623 14.1421L21.9285 8.17592C22.2336 7.87082 22.2336 7.37617 21.9285 7.07107C21.6234 6.76596 21.1287 6.76596 20.8236 7.07107L14.8574 13.0373L8.89121 7.07107C8.5861 6.76596 8.09146 6.76596 7.78635 7.07107C7.48125 7.37617 7.48125 7.87082 7.78635 8.17592L13.7526 14.1421L7.78635 20.1083C7.48125 20.4135 7.48125 20.9081 7.78635 21.2132C8.09146 21.5183 8.5861 21.5183 8.89121 21.2132L14.8574 15.247L20.8236 21.2132C21.1287 21.5183 21.6234 21.5183 21.9285 21.2132C22.2336 20.9081 22.2336 20.4135 21.9285 20.1083Z" fill="#013220"/>
</svg>
