<svg width="14" height="14" viewBox="0 0 14 14" fill="none" xmlns="http://www.w3.org/2000/svg">
<path d="M13.4241 2.03785C13.2909 1.6768 13.0783 1.35 12.8021 1.08176C12.5339 0.805557 12.2073 0.592993 11.846 0.459754C11.553 0.34596 11.1129 0.210512 10.3022 0.173611C9.4252 0.133617 9.16226 0.125 6.94206 0.125C4.72163 0.125 4.45869 0.133396 3.58192 0.17339C2.77122 0.210511 2.33084 0.34596 2.03807 0.459754C1.6768 0.592993 1.35 0.805557 1.08198 1.08176C0.805777 1.35 0.593214 1.67658 0.459754 2.03785C0.34596 2.33084 0.210511 2.77122 0.173611 3.58192C0.133617 4.45869 0.125 4.72163 0.125 6.94206C0.125 9.16226 0.133617 9.4252 0.173611 10.3022C0.210511 11.1129 0.34596 11.553 0.459754 11.846C0.593214 12.2073 0.805557 12.5339 1.08176 12.8021C1.35 13.0783 1.67658 13.2909 2.03785 13.4241C2.33084 13.5382 2.77122 13.6736 3.58192 13.7105C4.45869 13.7505 4.72141 13.7589 6.94183 13.7589C9.16248 13.7589 9.42542 13.7505 10.302 13.7105C11.1127 13.6736 11.553 13.5382 11.846 13.4241C12.5712 13.1444 13.1444 12.5712 13.4241 11.846C13.5379 11.553 13.6734 11.1129 13.7105 10.3022C13.7505 9.4252 13.7589 9.16226 13.7589 6.94206C13.7589 4.72163 13.7505 4.45869 13.7105 3.58192C13.6736 2.77122 13.5382 2.33084 13.4241 2.03785ZM6.94206 10.3281C4.8397 10.3022 3.5556 8.72966 3.5556 6.94183C3.5556 5.15401 4.95835 3.52927 6.94206 3.5556C8.92576 3.58192 10.302 5.15401 10.3283 6.94183C10.302 8.92577 9.04442 10.354 6.94206 10.3281ZM10.8116 3.89676C10.183 3.89676 9.55439 3.30982 9.55439 2.50319C9.55439 1.69657 10.4973 1.38225 10.8116 1.38225C11.126 1.38225 12.0689 1.69657 12.0689 2.50319C12.0689 3.30982 11.4403 3.89676 10.8116 3.89676Z" fill="#013220"/>
</svg>
