<svg width="9" height="15" viewBox="0 0 9 15" fill="none" xmlns="http://www.w3.org/2000/svg">
<path d="M8.71875 10.1875C8.71875 11.1146 8.40885 11.8281 7.78906 12.3281C7.17448 12.8281 6.36458 13.112 5.35938 13.1797V14.6953H4.39844V13.1562C3.46094 13.0729 2.65625 12.7786 1.98438 12.2734C1.3125 11.7682 0.934896 11.0339 0.851562 10.0703H2.19531C2.34635 11.1589 3.08073 11.8047 4.39844 12.0078V8.05469C3.86719 7.89323 3.42708 7.73698 3.07812 7.58594C2.73438 7.42969 2.39844 7.23438 2.07031 7C1.7474 6.76562 1.50521 6.48438 1.34375 6.15625C1.18229 5.82292 1.10156 5.4375 1.10156 5C1.10156 4.13542 1.40365 3.45052 2.00781 2.94531C2.61198 2.4401 3.40885 2.15885 4.39844 2.10156V0.679688H5.35938V2.11719C6.21354 2.20052 6.93229 2.48438 7.51562 2.96875C8.10417 3.44792 8.45312 4.15625 8.5625 5.09375H7.23438C7.0625 4.06771 6.4375 3.45573 5.35938 3.25781V7.07812C5.91146 7.23958 6.33854 7.38281 6.64062 7.50781C6.94792 7.6276 7.28646 7.80469 7.65625 8.03906C8.02604 8.27344 8.29427 8.56771 8.46094 8.92188C8.63281 9.27604 8.71875 9.69792 8.71875 10.1875ZM2.42969 4.95312C2.42969 5.43229 2.59896 5.8125 2.9375 6.09375C3.28125 6.36979 3.76823 6.60156 4.39844 6.78906V3.22656C3.84635 3.28906 3.38021 3.46615 3 3.75781C2.61979 4.04427 2.42969 4.44271 2.42969 4.95312ZM5.35938 12.0234C5.9375 11.9714 6.41667 11.8021 6.79688 11.5156C7.18229 11.224 7.375 10.8073 7.375 10.2656C7.375 9.75521 7.20052 9.35938 6.85156 9.07812C6.50781 8.79167 6.01042 8.54167 5.35938 8.32812V12.0234Z" fill="#92AB94"/>
</svg>
