<svg width="12" height="12" viewBox="0 0 12 12" fill="none" xmlns="http://www.w3.org/2000/svg">
<path d="M3.4375 7.24219C3.75521 8.05469 4.27865 8.71094 5.00781 9.21094C5.74219 9.71094 6.55729 9.96094 7.45312 9.96094C8.90625 9.96094 10.1016 9.51823 11.0391 8.63281V10.0078C9.99219 10.7995 8.79688 11.1953 7.45312 11.1953C6.18229 11.1953 5.04948 10.8281 4.05469 10.0938C3.0599 9.35417 2.38542 8.40365 2.03125 7.24219H0.140625V6.26562H1.82031C1.79948 5.98958 1.78906 5.78125 1.78906 5.64062C1.78906 5.52083 1.79948 5.34375 1.82031 5.10938H0.140625V4.11719H2.01562C2.35938 2.94531 3.03385 1.98177 4.03906 1.22656C5.04948 0.466146 6.1875 0.0859375 7.45312 0.0859375C8.86979 0.0859375 10.1146 0.5625 11.1875 1.51562L10.75 2.71094C9.89583 1.78385 8.79688 1.32031 7.45312 1.32031C6.53646 1.32031 5.71354 1.58073 4.98438 2.10156C4.25521 2.61719 3.72917 3.28906 3.40625 4.11719H10.2734L9.9375 5.10938H3.17188C3.15104 5.34375 3.13802 5.52083 3.13281 5.64062C3.13281 5.84375 3.15104 6.05208 3.1875 6.26562H9.53906L9.20312 7.24219H3.4375Z" fill="#92AB94"/>
</svg>
