<svg width="22" height="13" viewBox="0 0 22 13" fill="none" xmlns="http://www.w3.org/2000/svg">
<path d="M21.1394 1.82921H8.03227C7.67192 0.767252 6.6596 0 5.46938 0C4.27915 0 3.26684 0.767252 2.90649 1.82921H0.860569C0.385306 1.82921 0 2.21153 0 2.6831C0 3.15468 0.385306 3.537 0.860569 3.537H2.90654C3.26689 4.59896 4.27921 5.36621 5.46944 5.36621C6.65966 5.36621 7.67198 4.59896 8.03233 3.537H21.1394C21.6147 3.537 22 3.15468 22 2.6831C22 2.21153 21.6147 1.82921 21.1394 1.82921ZM5.46938 3.65842C4.92739 3.65842 4.48643 3.22089 4.48643 2.6831C4.48643 2.14532 4.92739 1.70779 5.46938 1.70779C6.01136 1.70779 6.45232 2.14532 6.45232 2.6831C6.45232 3.22089 6.01136 3.65842 5.46938 3.65842Z" fill="#013220"/>
<path d="M21.1394 9.1461H19.0934C18.733 8.08415 17.7207 7.31689 16.5305 7.31689C15.3403 7.31689 14.328 8.08415 13.9677 9.1461H0.860569C0.385306 9.1461 0 9.52842 0 10C0 10.4716 0.385306 10.8539 0.860569 10.8539H13.9677C14.328 11.9159 15.3404 12.6831 16.5306 12.6831C17.7207 12.6831 18.7331 11.9159 19.0935 10.8539H21.1394C21.6147 10.8539 22 10.4716 22 10C22 9.52842 21.6147 9.1461 21.1394 9.1461ZM16.5306 10.9753C15.9886 10.9753 15.5476 10.5378 15.5476 10C15.5476 9.46222 15.9886 9.02468 16.5306 9.02468C17.0725 9.02468 17.5135 9.46222 17.5135 10C17.5135 10.5378 17.0725 10.9753 16.5306 10.9753Z" fill="#013220"/>
</svg>
