<?xml version="1.0" encoding="UTF-8"?>
<!DOCTYPE svg PUBLIC "-//W3C//DTD SVG 1.1//EN" "http://www.w3.org/Graphics/SVG/1.1/DTD/svg11.dtd">
<!-- Creator: CorelDRAW 2020 (64-Bit) -->
<svg xmlns="http://www.w3.org/2000/svg" xml:space="preserve" width="19.4732mm" height="8.0648mm" version="1.1" style="shape-rendering:geometricPrecision; text-rendering:geometricPrecision; image-rendering:optimizeQuality; fill-rule:evenodd; clip-rule:evenodd"
viewBox="0 0 1946.26 806.04"
 xmlns:xlink="http://www.w3.org/1999/xlink"
 xmlns:xodm="http://www.corel.com/coreldraw/odm/2003">
 <defs>
  <style type="text/css">
   <![CDATA[
    .fil0 {fill:none}
    .fil6 {fill:#08261B}
    .fil5 {fill:#0C2E21}
    .fil4 {fill:#0D3B2A}
    .fil8 {fill:#123D2D}
    .fil3 {fill:#1A4636}
    .fil1 {fill:#406557}
    .fil2 {fill:#5A7A6E}
    .fil7 {fill:#738E84}
   ]]>
  </style>
    <clipPath id="id0">
     <path d="M373.7 182.03c136.3,0 246.79,110.49 246.79,246.78 0,136.3 -110.49,246.78 -246.79,246.78 -136.29,0 -246.78,-110.48 -246.78,-246.78 0,-136.29 110.49,-246.78 246.78,-246.78z"/>
    </clipPath>
 </defs>
 <g id="Слой_x0020_1">
  <metadata id="CorelCorpID_0Corel-Layer"/>
  <rect class="fil0" width="1946.26" height="806.04"/>
  <g id="_2783947204736">
   <path class="fil1" d="M373.7 182.03c136.3,0 246.79,110.49 246.79,246.78 0,136.3 -110.49,246.78 -246.79,246.78 -136.29,0 -246.78,-110.48 -246.78,-246.78 0,-136.29 110.49,-246.78 246.78,-246.78z"/>
   <g style="clip-path:url(#id0)">
    <g>
     <g>
      <rect class="fil2" x="126.92" y="305.42" width="123.39" height="123.39"/>
      <rect class="fil3" x="373.7" y="305.42" width="123.39" height="123.39"/>
      <rect class="fil4" x="497.09" y="305.42" width="123.39" height="123.39"/>
      <rect class="fil2" x="250.31" y="182.03" width="123.39" height="123.39"/>
      <rect class="fil1" x="126.92" y="428.81" width="123.39" height="123.39"/>
      <rect class="fil3" x="250.31" y="428.81" width="123.39" height="123.39"/>
      <rect class="fil4" x="373.7" y="428.81" width="123.39" height="123.39"/>
      <rect class="fil5" x="497.09" y="428.81" width="123.39" height="123.39"/>
      <rect class="fil3" x="126.92" y="552.2" width="123.39" height="123.39"/>
      <rect class="fil4" x="250.31" y="552.2" width="123.39" height="123.39"/>
      <rect class="fil5" x="373.7" y="552.2" width="123.39" height="123.39"/>
      <rect class="fil1" x="250.31" y="305.42" width="123.39" height="123.39"/>
      <rect class="fil6" x="497.09" y="552.2" width="123.39" height="123.39"/>
      <rect class="fil7" x="126.92" y="182.03" width="123.39" height="123.39"/>
      <rect class="fil1" x="373.7" y="182.03" width="123.39" height="123.39"/>
      <rect class="fil3" x="497.09" y="182.03" width="123.39" height="123.39"/>
     </g>
    </g>
   </g>
   <path class="fil0" d="M373.7 182.03c136.3,0 246.79,110.49 246.79,246.78 0,136.3 -110.49,246.78 -246.79,246.78 -136.29,0 -246.78,-110.48 -246.78,-246.78 0,-136.29 110.49,-246.78 246.78,-246.78z"/>
   <path class="fil8" d="M1018.69 348.22c-38.98,0 -68.9,-25.59 -73.63,-62.61l172.48 0c0,-60.64 -39.38,-109.07 -102.38,-109.07 -59.85,0 -101.58,44.9 -101.58,98.84 0,56.7 45.28,100.02 103.55,100.02 42.53,0 81.91,-23.23 95.69,-58.28l-31.5 0c-9.06,18.9 -35.44,31.1 -62.62,31.1zm-3.54 -144.89c37.8,0 63.79,23.23 69.69,57.88l-139.38 0c5.12,-33.07 30.71,-57.88 69.69,-57.88zm392.85 167.34l31.89 0 0 -243.74 -31.89 0 0 243.74zm-526.73 308.44c57.09,0 103.16,-44.9 103.16,-99.63 0,-54.73 -46.07,-99.23 -103.16,-99.23 -27.56,0 -52.71,10.51 -71.27,27.61l0 -50.87 0 -26.36 -31.89 0 0 148.84 0 94.9 28.34 0 0.72 -25.81c18.79,18.79 45.11,30.53 74.1,30.53zm0 -28.35c-38.99,0 -71.27,-31.89 -71.27,-71.27 0,-39.37 32.28,-71.27 71.27,-71.27 39.37,0 71.26,31.9 71.26,71.27 0,39.38 -31.89,71.27 -71.26,71.27zm478.33 28.35c57.09,0 103.16,-44.9 103.16,-99.63 0,-54.73 -46.07,-99.23 -103.16,-99.23 -56.7,0 -103.16,44.5 -103.16,99.23 0,54.73 46.46,99.63 103.16,99.63zm0 -28.35c-38.98,0 -71.27,-31.89 -71.27,-71.27 0,-39.37 32.29,-71.27 71.27,-71.27 39.38,0 71.27,31.9 71.27,71.27 0,39.38 -31.89,71.27 -71.27,71.27zm-107.83 -275.36c29.11,0 55.37,-11.68 74.1,-30.39l0.65 25.67 28.41 0 0 -94.9 0 -94.89 -28.41 0 -0.65 25.86c-18.74,-18.61 -44.99,-30.19 -74.1,-30.19 -56.71,0 -103.17,44.5 -103.17,99.23 0,54.73 46.46,99.63 103.17,99.63zm0 -28.35c-38.99,0 -71.28,-31.89 -71.28,-71.27 0,-39.37 32.29,-71.26 71.28,-71.26 39.37,0 71.26,31.89 71.26,71.26 0,39.38 -31.89,71.27 -71.26,71.27zm-131.53 332.07c57.09,0 103.16,-44.9 103.16,-99.63 0,-54.73 -46.07,-99.23 -103.16,-99.23 -56.71,0 -103.17,44.5 -103.17,99.23 0,54.73 46.46,99.63 103.17,99.63zm0 -28.35c-38.99,0 -71.27,-31.89 -71.27,-71.27 0,-39.37 32.28,-71.27 71.27,-71.27 39.37,0 71.26,31.9 71.26,71.27 0,39.38 -31.89,71.27 -71.26,71.27zm-224.53 -470.87c-4.72,-0.64 -9.53,-0.97 -14.44,-0.97 -27.58,0 -52.74,10.52 -71.31,27.64l0 -25.68 -31.85 0 0 97.26 0 92.53 31.85 0 0 -92.53 0.04 0c0,-39.38 32.28,-71.27 71.27,-71.27 4.95,0 9.77,0.5 14.44,1.46l0 -28.44zm641.41 26.6l43.27 0 0 -25.6 -43.27 0 -11.08 0 0 0 0 -19.78 0 -34.17 -31.89 0 0 46.06 0 7.89 0 25.6 0 4.66 0 90.63c0,39.77 24.02,73.63 70.87,73.63 16.15,0 29.14,-3.55 36.23,-7.49l0 -27.95c-10.63,3.94 -19.69,6.3 -31.5,6.3 -30.71,0 -43.71,-21.65 -43.71,-46.85l0 -76.76 0 -16.16 11.08 0zm118.81 224.17l34.26 0 129.15 -249.76 -34.65 0 -66.93 133.48 -66.54 -133.48 -34.65 0 84.65 164.59 -45.29 85.17zm-102.31 148.85l117.58 99.62 -42.75 0 -95.62 -81.92 -6.79 5.77 0 76.15 -31.89 0 0 -248.46 31.89 0 0 23.8 0 112.84 0 0.57 92.93 -78.54 40.56 0 -105.91 90.18z"/>
  </g>
 </g>
</svg>
