<svg width="16" height="15" viewBox="0 0 16 15" fill="none" xmlns="http://www.w3.org/2000/svg">
<path d="M8.77343 7.50003L14.8398 1.86692C15.0534 1.66859 15.0534 1.34705 14.8398 1.14874C14.6262 0.950444 14.28 0.950418 14.0664 1.14874L7.99999 6.78186L1.9336 1.14874C1.72002 0.950418 1.37374 0.950418 1.16019 1.14874C0.946632 1.34707 0.946605 1.66862 1.16019 1.86692L7.22657 7.5L1.16019 13.1331C0.946605 13.3314 0.946605 13.653 1.16019 13.8513C1.26696 13.9504 1.40694 14 1.54691 14C1.68688 14 1.82682 13.9504 1.93363 13.8513L7.99999 8.2182L14.0664 13.8513C14.1731 13.9504 14.3131 14 14.4531 14C14.5931 14 14.733 13.9504 14.8398 13.8513C15.0534 13.653 15.0534 13.3314 14.8398 13.1331L8.77343 7.50003Z" fill="#013220" stroke="#013220" stroke-width="0.7"/>
</svg>
