<svg width="103" height="78" viewBox="0 0 103 78" fill="none" xmlns="http://www.w3.org/2000/svg">
<path d="M102.572 41.2854C102.572 35.7626 98.0951 31.2854 92.5723 31.2854L79.4294 31.2854L94.8581 0.428451L77.8956 0.428449C74.1079 0.428449 70.6453 2.56846 68.9513 5.95627L57.3423 29.174C56.6481 30.5625 56.2866 32.0937 56.2866 33.6461L56.2866 67.5711C56.2866 73.0939 60.7637 77.5711 66.2866 77.5711L92.5723 77.5711C98.0951 77.5711 102.572 73.0939 102.572 67.5711L102.572 41.2854Z" fill="url(#paint0_linear)" fill-opacity="0.15"/>
<path d="M36.2852 77.5711C41.808 77.5711 46.2852 73.0939 46.2852 67.5711L46.2852 41.2854C46.2852 35.7626 41.808 31.2854 36.2852 31.2854L23.1423 31.2854L38.571 0.428474L21.6085 0.428472C17.8208 0.428472 14.3582 2.56848 12.6642 5.9563L1.05527 29.174C0.360977 30.5625 -0.000480491 32.0937 -0.000480627 33.6461L-0.000483592 67.5711C-0.000484075 73.0939 4.47667 77.5711 9.99952 77.5711L36.2852 77.5711Z" fill="url(#paint1_linear)" fill-opacity="0.15"/>
<defs>
<linearGradient id="paint0_linear" x1="102.572" y1="77.5711" x2="49.8334" y2="72.8733" gradientUnits="userSpaceOnUse">
<stop stop-color="#9FC6EB"/>
<stop offset="1" stop-color="#ECD5A9"/>
</linearGradient>
<linearGradient id="paint1_linear" x1="46.2852" y1="77.5711" x2="-6.45362" y2="72.8733" gradientUnits="userSpaceOnUse">
<stop stop-color="#9FC6EB"/>
<stop offset="1" stop-color="#ECD5A9"/>
</linearGradient>
</defs>
</svg>
