<svg width="26" height="26" viewBox="0 0 26 26" fill="none" xmlns="http://www.w3.org/2000/svg">
<g clip-path="url(#clip0)">
<path d="M26 13.1433C26 12.0387 25.1046 11.1433 24 11.1433L22.0466 11.1433C21.3032 11.1433 20.8197 10.361 21.1522 9.69607L24.1429 3.71475L19.8075 3.71475C19.05 3.71475 18.3575 4.14275 18.0187 4.82031L15.0683 10.721C14.9294 10.9987 14.8572 11.3049 14.8572 11.6154L14.8572 20.2861C14.8572 21.3907 15.7526 22.2861 16.8572 22.2861L24 22.2861C25.1046 22.2861 26 21.3907 26 20.2861L26 13.1433Z" fill="#013220"/>
<path d="M9.14453 22.2861C10.2491 22.2861 11.1445 21.3907 11.1445 20.2861L11.1445 13.1433C11.1445 12.0387 10.2491 11.1433 9.14453 11.1433L7.19115 11.1433C6.44777 11.1433 5.96427 10.361 6.29673 9.69608L9.28742 3.71476L4.95206 3.71476C4.19452 3.71476 3.502 4.14276 3.16321 4.82033L0.212842 10.721C0.0739832 10.9987 0.00169182 11.3049 0.00169179 11.6154L0.00169104 20.2861C0.00169094 21.3907 0.897121 22.2861 2.00169 22.2861L9.14453 22.2861Z" fill="#013220"/>
</g>
<defs>
<clipPath id="clip0">
<rect width="26" height="26" fill="white" transform="translate(26 26) rotate(-180)"/>
</clipPath>
</defs>
</svg>
