<svg width="26" height="20" viewBox="0 0 26 20" fill="none" xmlns="http://www.w3.org/2000/svg">
<path d="M26 10.1429C26 9.03832 25.1046 8.14289 24 8.14289L22.0466 8.14289C21.3032 8.14289 20.8197 7.36057 21.1522 6.69567L24.1429 0.714353L19.8075 0.714353C19.05 0.714353 18.3575 1.14235 18.0187 1.81992L15.0683 7.72059C14.9294 7.99831 14.8572 8.30454 14.8572 8.61503L14.8572 17.2857C14.8572 18.3903 15.7526 19.2857 16.8572 19.2857L24 19.2857C25.1046 19.2857 26 18.3903 26 17.2857L26 10.1429Z" fill="#013220"/>
<path d="M9.14258 19.2857C10.2472 19.2857 11.1426 18.3903 11.1426 17.2857L11.1426 10.1429C11.1426 9.03831 10.2471 8.14288 9.14258 8.14288L7.1892 8.14288C6.44582 8.14288 5.96232 7.36056 6.29478 6.69566L9.28547 0.714349L4.95011 0.714349C4.19257 0.714349 3.50005 1.14235 3.16126 1.81991L0.21089 7.72058C0.0720311 7.9983 -0.000260347 8.30453 -0.000260374 8.61502L-0.000261132 17.2857C-0.000261228 18.3903 0.895169 19.2857 1.99974 19.2857L9.14258 19.2857Z" fill="#013220"/>
</svg>
