<svg width="10" height="11" viewBox="0 0 10 11" fill="none" xmlns="http://www.w3.org/2000/svg">
<path d="M6 6.875H3.03906V8.05469H7.14844V9.15625H3.03906V11H1.74219V9.15625H0.640625V8.05469H1.74219V6.875H0.640625V5.78125H1.74219V0.28125H6.22656C7.1849 0.28125 7.99479 0.596354 8.65625 1.22656C9.31771 1.85677 9.64844 2.64062 9.64844 3.57812C9.64844 4.49479 9.30208 5.27344 8.60938 5.91406C7.91667 6.55469 7.04688 6.875 6 6.875ZM3.03906 1.36719V5.78125H5.84375C6.54688 5.80208 7.14062 5.59896 7.625 5.17188C8.10938 4.73958 8.35156 4.20833 8.35156 3.57812C8.35156 2.94792 8.11719 2.41667 7.64844 1.98438C7.17969 1.55208 6.60938 1.34635 5.9375 1.36719H3.03906Z" fill="#92AB94"/>
</svg>
