<svg width="18" height="14" viewBox="0 0 18 14" fill="none" xmlns="http://www.w3.org/2000/svg">
<path d="M17.0572 2.75193C16.8572 1.99356 16.2711 1.39574 15.5279 1.19153C14.17 0.8125 8.73842 0.8125 8.73842 0.8125C8.73842 0.8125 3.30705 0.8125 1.94918 1.17716C1.2202 1.38115 0.619797 1.99366 0.41984 2.75193C0.0625 4.13709 0.0625 7.00972 0.0625 7.00972C0.0625 7.00972 0.0625 9.89683 0.41984 11.2675C0.620009 12.0258 1.2059 12.6236 1.94928 12.8278C3.32134 13.2069 8.73863 13.2069 8.73863 13.2069C8.73863 13.2069 14.17 13.2069 15.5279 12.8423C16.2712 12.6382 16.8572 12.0404 17.0574 11.2821C17.4146 9.89683 17.4146 7.02431 17.4146 7.02431C17.4146 7.02431 17.4289 4.13709 17.0572 2.75193ZM7.00912 9.66356V4.35589L11.5257 7.00972L7.00912 9.66356Z" fill="#013220"/>
</svg>
